<svg width="761" height="35" viewBox="0 0 761 35" fill="none" xmlns="http://www.w3.org/2000/svg">
<path d="M24.6328 9.46094C23.9922 9.17969 23.2422 8.89844 22.3828 8.61719C21.5391 8.32031 20.6484 8.05469 19.7109 7.82031C18.7891 7.58594 17.8516 7.39844 16.8984 7.25781C15.9453 7.10156 15.0469 7.02344 14.2031 7.02344C12.7344 7.02344 11.5859 7.21094 10.7578 7.58594C9.92969 7.96094 9.51562 8.59375 9.51562 9.48438C9.51562 9.90625 9.65625 10.2812 9.9375 10.6094C10.2344 10.9219 10.6484 11.2188 11.1797 11.5C11.7109 11.7656 12.3438 12.0312 13.0781 12.2969C13.8281 12.5469 14.6562 12.8125 15.5625 13.0938L17.2734 13.6328C18.7109 14.0703 20 14.6016 21.1406 15.2266C22.2812 15.8359 23.2422 16.5625 24.0234 17.4062C24.8203 18.2344 25.4297 19.1875 25.8516 20.2656C26.2734 21.3438 26.4844 22.5703 26.4844 23.9453C26.4844 25.5547 26.2266 27.0234 25.7109 28.3516C25.2109 29.6641 24.4219 30.7891 23.3438 31.7266C22.2656 32.6641 20.8828 33.3906 19.1953 33.9062C17.5234 34.4219 15.5078 34.6797 13.1484 34.6797C11.0547 34.6797 8.96875 34.5078 6.89062 34.1641C4.82812 33.8203 2.74219 33.2188 0.632812 32.3594V24.625C2.64844 25.6562 4.60156 26.4141 6.49219 26.8984C8.39844 27.3672 10.2734 27.6016 12.1172 27.6016C13.6328 27.6016 14.7344 27.3594 15.4219 26.875C16.125 26.3906 16.4766 25.7188 16.4766 24.8594C16.4766 24.3438 16.3438 23.9062 16.0781 23.5469C15.8281 23.1719 15.4141 22.8281 14.8359 22.5156C14.2734 22.2031 13.5312 21.8906 12.6094 21.5781C11.6875 21.25 10.5703 20.8828 9.25781 20.4766C7.94531 20.0859 6.72656 19.5938 5.60156 19C4.49219 18.4062 3.53125 17.6953 2.71875 16.8672C1.90625 16.0234 1.26562 15.0469 0.796875 13.9375C0.34375 12.8281 0.117188 11.5625 0.117188 10.1406C0.117188 8.67188 0.375 7.32812 0.890625 6.10938C1.40625 4.89062 2.19531 3.85156 3.25781 2.99219C4.32031 2.11719 5.66406 1.4375 7.28906 0.953125C8.92969 0.46875 10.875 0.226562 13.125 0.226562C14.0156 0.226562 14.9609 0.265625 15.9609 0.34375C16.9609 0.421875 17.9766 0.539062 19.0078 0.695312C20.0547 0.851562 21.0859 1.05469 22.1016 1.30469C23.1172 1.55469 24.0781 1.85156 24.9844 2.19531L24.6328 9.46094ZM50.7047 34.6797C48.6578 34.6797 46.8297 34.4531 45.2203 34C43.6109 33.5625 42.1891 32.9531 40.9547 32.1719C39.7359 31.375 38.6969 30.4375 37.8375 29.3594C36.9938 28.2656 36.2984 27.0859 35.7516 25.8203C35.2203 24.5391 34.8297 23.1953 34.5797 21.7891C34.3453 20.3828 34.2281 18.9531 34.2281 17.5C34.2281 16.0625 34.3766 14.6406 34.6734 13.2344C34.9703 11.8125 35.4156 10.4609 36.0094 9.17969C36.6031 7.89844 37.3531 6.71094 38.2594 5.61719C39.1656 4.52344 40.2281 3.57812 41.4469 2.78125C42.6656 1.98438 44.0406 1.35938 45.5719 0.90625C47.1188 0.453125 48.8297 0.226562 50.7047 0.226562C52.5797 0.226562 54.2828 0.453125 55.8141 0.90625C57.3609 1.35938 58.7438 1.98438 59.9625 2.78125C61.1969 3.57812 62.2672 4.52344 63.1734 5.61719C64.0797 6.71094 64.8297 7.89844 65.4234 9.17969C66.0328 10.4609 66.4859 11.8125 66.7828 13.2344C67.0797 14.6406 67.2281 16.0625 67.2281 17.5C67.2281 18.9531 67.1031 20.3828 66.8531 21.7891C66.6031 23.1953 66.2047 24.5391 65.6578 25.8203C65.1266 27.0859 64.4313 28.2656 63.5719 29.3594C62.7125 30.4375 61.6734 31.375 60.4547 32.1719C59.2359 32.9531 57.8141 33.5625 56.1891 34C54.5797 34.4531 52.7516 34.6797 50.7047 34.6797ZM44.7281 17.5C44.7281 19.375 44.8609 20.9766 45.1266 22.3047C45.4078 23.6328 45.7984 24.7188 46.2984 25.5625C46.8141 26.4062 47.4391 27.0234 48.1734 27.4141C48.9234 27.8047 49.7672 28 50.7047 28C51.6422 28 52.4781 27.8047 53.2125 27.4141C53.9625 27.0234 54.5953 26.4062 55.1109 25.5625C55.6422 24.7188 56.0406 23.6328 56.3063 22.3047C56.5875 20.9766 56.7281 19.375 56.7281 17.5C56.7281 15.625 56.5875 14.0234 56.3063 12.6953C56.0406 11.3516 55.6422 10.2578 55.1109 9.41406C54.5953 8.55469 53.9625 7.92188 53.2125 7.51562C52.4781 7.10938 51.6422 6.90625 50.7047 6.90625C49.7672 6.90625 48.9234 7.10938 48.1734 7.51562C47.4391 7.92188 46.8141 8.55469 46.2984 9.41406C45.7984 10.2578 45.4078 11.3516 45.1266 12.6953C44.8609 14.0234 44.7281 15.625 44.7281 17.5ZM75.8156 34V0.859375H87.3469C90.1906 0.859375 92.7453 1.19531 95.0109 1.86719C97.2766 2.52344 99.1906 3.53125 100.753 4.89062C102.331 6.23438 103.534 7.92969 104.363 9.97656C105.206 12.0078 105.628 14.3984 105.628 17.1484C105.628 19.2422 105.409 21.1172 104.972 22.7734C104.55 24.4141 103.941 25.8594 103.144 27.1094C102.363 28.3594 101.409 29.4219 100.284 30.2969C99.175 31.1562 97.9406 31.8672 96.5813 32.4297C95.2219 32.9766 93.7531 33.375 92.175 33.625C90.6125 33.875 88.9719 34 87.2531 34H75.8156ZM86.3156 26.5H87.0188C88.2375 26.5 89.3469 26.3906 90.3469 26.1719C91.3469 25.9375 92.1984 25.4844 92.9016 24.8125C93.6203 24.1406 94.1672 23.1953 94.5422 21.9766C94.9328 20.7578 95.1281 19.1484 95.1281 17.1484C95.1281 15.3359 94.9563 13.8281 94.6125 12.625C94.2688 11.4062 93.7609 10.4375 93.0891 9.71875C92.4172 8.98438 91.5891 8.46875 90.6047 8.17188C89.6203 7.85938 88.4953 7.70312 87.2297 7.70312H86.3156V26.5ZM114.333 0.859375H137.583V7H124.833V14.0078H136.083V20.0078H124.833V27.25H137.583V34H114.333V0.859375ZM147.647 0.859375H162.553C164.913 0.859375 166.991 1.17188 168.788 1.79688C170.584 2.40625 172.077 3.21875 173.264 4.23438C174.467 5.23438 175.373 6.375 175.983 7.65625C176.592 8.92188 176.897 10.2031 176.897 11.5C176.897 12.5156 176.795 13.5234 176.592 14.5234C176.389 15.5078 176.03 16.4453 175.514 17.3359C174.998 18.2109 174.288 19.0078 173.381 19.7266C172.491 20.4297 171.35 21 169.959 21.4375C170.163 22.0938 170.506 22.9062 170.991 23.875C171.475 24.8438 172.038 25.8906 172.678 27.0156C173.319 28.1406 174.006 29.3047 174.741 30.5078C175.475 31.7109 176.194 32.875 176.897 34H164.897C164.225 32.4844 163.538 30.7891 162.834 28.9141C162.131 27.0234 161.569 24.9688 161.147 22.75H158.147V34H147.647V0.859375ZM159.928 17.5C161.116 17.5 162.116 17.3438 162.928 17.0312C163.756 16.7188 164.428 16.3125 164.944 15.8125C165.459 15.3125 165.827 14.75 166.045 14.125C166.28 13.5 166.397 12.875 166.397 12.25C166.397 11.0156 166.225 10.0078 165.881 9.22656C165.538 8.44531 165.069 7.83594 164.475 7.39844C163.881 6.94531 163.194 6.64062 162.413 6.48438C161.631 6.32812 160.795 6.25 159.905 6.25H158.147V17.5H159.928ZM184.172 0.859375H193.922L202.172 13.75L210.422 0.859375H220.406V34H209.672V16L201.938 29.1016H199.664L191.672 16V34H184.172V0.859375ZM259.298 34H246.783L245.236 26.9453H237.009L235.533 34H227.072L235.509 0.859375H250.181L259.298 34ZM241.228 6.01562L238.017 21.4609H244.72L241.955 6.01562H241.228ZM265.941 0.859375H276.441V27.25H287.691V34H265.941V0.859375ZM295.294 0.859375H305.044L313.294 13.75L321.544 0.859375H331.528V34H320.794V16L313.059 29.1016H310.786L302.794 16V34H295.294V0.859375ZM365.592 9.46094C364.952 9.17969 364.202 8.89844 363.342 8.61719C362.498 8.32031 361.608 8.05469 360.67 7.82031C359.748 7.58594 358.811 7.39844 357.858 7.25781C356.905 7.10156 356.006 7.02344 355.163 7.02344C353.694 7.02344 352.545 7.21094 351.717 7.58594C350.889 7.96094 350.475 8.59375 350.475 9.48438C350.475 9.90625 350.616 10.2812 350.897 10.6094C351.194 10.9219 351.608 11.2188 352.139 11.5C352.67 11.7656 353.303 12.0312 354.038 12.2969C354.788 12.5469 355.616 12.8125 356.522 13.0938L358.233 13.6328C359.67 14.0703 360.959 14.6016 362.1 15.2266C363.241 15.8359 364.202 16.5625 364.983 17.4062C365.78 18.2344 366.389 19.1875 366.811 20.2656C367.233 21.3438 367.444 22.5703 367.444 23.9453C367.444 25.5547 367.186 27.0234 366.67 28.3516C366.17 29.6641 365.381 30.7891 364.303 31.7266C363.225 32.6641 361.842 33.3906 360.155 33.9062C358.483 34.4219 356.467 34.6797 354.108 34.6797C352.014 34.6797 349.928 34.5078 347.85 34.1641C345.788 33.8203 343.702 33.2188 341.592 32.3594V24.625C343.608 25.6562 345.561 26.4141 347.452 26.8984C349.358 27.3672 351.233 27.6016 353.077 27.6016C354.592 27.6016 355.694 27.3594 356.381 26.875C357.084 26.3906 357.436 25.7188 357.436 24.8594C357.436 24.3438 357.303 23.9062 357.038 23.5469C356.788 23.1719 356.373 22.8281 355.795 22.5156C355.233 22.2031 354.491 21.8906 353.569 21.5781C352.647 21.25 351.53 20.8828 350.217 20.4766C348.905 20.0859 347.686 19.5938 346.561 19C345.452 18.4062 344.491 17.6953 343.678 16.8672C342.866 16.0234 342.225 15.0469 341.756 13.9375C341.303 12.8281 341.077 11.5625 341.077 10.1406C341.077 8.67188 341.334 7.32812 341.85 6.10938C342.366 4.89062 343.155 3.85156 344.217 2.99219C345.28 2.11719 346.623 1.4375 348.248 0.953125C349.889 0.46875 351.834 0.226562 354.084 0.226562C354.975 0.226562 355.92 0.265625 356.92 0.34375C357.92 0.421875 358.936 0.539062 359.967 0.695312C361.014 0.851562 362.045 1.05469 363.061 1.30469C364.077 1.55469 365.038 1.85156 365.944 2.19531L365.592 9.46094ZM396.15 0.859375H407.306C408.275 0.859375 409.337 0.898438 410.494 0.976562C411.666 1.03906 412.837 1.17969 414.009 1.39844C415.181 1.60156 416.314 1.89844 417.408 2.28906C418.502 2.66406 419.47 3.16406 420.314 3.78906C421.173 4.39844 421.853 5.15625 422.353 6.0625C422.869 6.95312 423.127 8.01562 423.127 9.25C423.127 9.98438 423.041 10.7188 422.869 11.4531C422.697 12.1719 422.384 12.8359 421.931 13.4453C421.494 14.0547 420.884 14.5859 420.103 15.0391C419.337 15.4922 418.353 15.8125 417.15 16C418.462 16.0781 419.627 16.3828 420.642 16.9141C421.673 17.4297 422.541 18.0781 423.244 18.8594C423.947 19.6406 424.478 20.5078 424.837 21.4609C425.212 22.3984 425.4 23.3281 425.4 24.25C425.4 25.4844 425.15 26.6875 424.65 27.8594C424.15 29.0156 423.306 30.0547 422.119 30.9766C420.947 31.8828 419.392 32.6172 417.455 33.1797C415.517 33.7266 413.111 34 410.236 34H396.15V0.859375ZM406.65 28H410.892C412.236 28 413.236 27.6562 413.892 26.9688C414.564 26.2656 414.9 25.3594 414.9 24.25C414.9 23.5938 414.783 23.0312 414.548 22.5625C414.33 22.0938 413.916 21.7109 413.306 21.4141C412.697 21.1016 411.853 20.875 410.775 20.7344C409.712 20.5781 408.337 20.5 406.65 20.5V28ZM409.931 14.5C410.666 14.5 411.337 14.3984 411.947 14.1953C412.556 13.9766 413.08 13.6953 413.517 13.3516C413.955 13.0078 414.291 12.6094 414.525 12.1562C414.775 11.7031 414.9 11.2344 414.9 10.75C414.9 10 414.752 9.38281 414.455 8.89844C414.158 8.41406 413.681 8.03125 413.025 7.75C412.369 7.46875 411.517 7.27344 410.47 7.16406C409.423 7.05469 408.15 7 406.65 7V14.5H409.931ZM463.355 34H450.839L449.292 26.9453H441.066L439.589 34H431.128L439.566 0.859375H454.237L463.355 34ZM445.284 6.01562L442.073 21.4609H448.777L446.011 6.01562H445.284ZM469.997 0.859375H484.903C487.263 0.859375 489.341 1.17188 491.138 1.79688C492.934 2.40625 494.427 3.21875 495.614 4.23438C496.817 5.23438 497.723 6.375 498.333 7.65625C498.942 8.92188 499.247 10.2031 499.247 11.5C499.247 12.5156 499.145 13.5234 498.942 14.5234C498.739 15.5078 498.38 16.4453 497.864 17.3359C497.348 18.2109 496.638 19.0078 495.731 19.7266C494.841 20.4297 493.7 21 492.309 21.4375C492.513 22.0938 492.856 22.9062 493.341 23.875C493.825 24.8438 494.388 25.8906 495.028 27.0156C495.669 28.1406 496.356 29.3047 497.091 30.5078C497.825 31.7109 498.544 32.875 499.247 34H487.247C486.575 32.4844 485.888 30.7891 485.184 28.9141C484.481 27.0234 483.919 24.9688 483.497 22.75H480.497V34H469.997V0.859375ZM482.278 17.5C483.466 17.5 484.466 17.3438 485.278 17.0312C486.106 16.7188 486.778 16.3125 487.294 15.8125C487.809 15.3125 488.177 14.75 488.395 14.125C488.63 13.5 488.747 12.875 488.747 12.25C488.747 11.0156 488.575 10.0078 488.231 9.22656C487.888 8.44531 487.419 7.83594 486.825 7.39844C486.231 6.94531 485.544 6.64062 484.763 6.48438C483.981 6.32812 483.145 6.25 482.255 6.25H480.497V17.5H482.278ZM506.522 0.859375H517.678C518.647 0.859375 519.709 0.898438 520.866 0.976562C522.038 1.03906 523.209 1.17969 524.381 1.39844C525.553 1.60156 526.686 1.89844 527.78 2.28906C528.873 2.66406 529.842 3.16406 530.686 3.78906C531.545 4.39844 532.225 5.15625 532.725 6.0625C533.241 6.95312 533.498 8.01562 533.498 9.25C533.498 9.98438 533.413 10.7188 533.241 11.4531C533.069 12.1719 532.756 12.8359 532.303 13.4453C531.866 14.0547 531.256 14.5859 530.475 15.0391C529.709 15.4922 528.725 15.8125 527.522 16C528.834 16.0781 529.998 16.3828 531.014 16.9141C532.045 17.4297 532.913 18.0781 533.616 18.8594C534.319 19.6406 534.85 20.5078 535.209 21.4609C535.584 22.3984 535.772 23.3281 535.772 24.25C535.772 25.4844 535.522 26.6875 535.022 27.8594C534.522 29.0156 533.678 30.0547 532.491 30.9766C531.319 31.8828 529.764 32.6172 527.827 33.1797C525.889 33.7266 523.483 34 520.608 34H506.522V0.859375ZM517.022 28H521.264C522.608 28 523.608 27.6562 524.264 26.9688C524.936 26.2656 525.272 25.3594 525.272 24.25C525.272 23.5938 525.155 23.0312 524.92 22.5625C524.702 22.0938 524.288 21.7109 523.678 21.4141C523.069 21.1016 522.225 20.875 521.147 20.7344C520.084 20.5781 518.709 20.5 517.022 20.5V28ZM520.303 14.5C521.038 14.5 521.709 14.3984 522.319 14.1953C522.928 13.9766 523.452 13.6953 523.889 13.3516C524.327 13.0078 524.663 12.6094 524.897 12.1562C525.147 11.7031 525.272 11.2344 525.272 10.75C525.272 10 525.123 9.38281 524.827 8.89844C524.53 8.41406 524.053 8.03125 523.397 7.75C522.741 7.46875 521.889 7.27344 520.842 7.16406C519.795 7.05469 518.522 7 517.022 7V14.5H520.303ZM545.273 0.859375H568.523V7H555.773V14.0078H567.023V20.0078H555.773V27.25H568.523V34H545.273V0.859375ZM578.588 0.859375H593.494C595.853 0.859375 597.931 1.17188 599.728 1.79688C601.525 2.40625 603.017 3.21875 604.205 4.23438C605.408 5.23438 606.314 6.375 606.923 7.65625C607.533 8.92188 607.838 10.2031 607.838 11.5C607.838 12.5156 607.736 13.5234 607.533 14.5234C607.33 15.5078 606.97 16.4453 606.455 17.3359C605.939 18.2109 605.228 19.0078 604.322 19.7266C603.431 20.4297 602.291 21 600.9 21.4375C601.103 22.0938 601.447 22.9062 601.931 23.875C602.416 24.8438 602.978 25.8906 603.619 27.0156C604.259 28.1406 604.947 29.3047 605.681 30.5078C606.416 31.7109 607.134 32.875 607.838 34H595.838C595.166 32.4844 594.478 30.7891 593.775 28.9141C593.072 27.0234 592.509 24.9688 592.088 22.75H589.088V34H578.588V0.859375ZM590.869 17.5C592.056 17.5 593.056 17.3438 593.869 17.0312C594.697 16.7188 595.369 16.3125 595.884 15.8125C596.4 15.3125 596.767 14.75 596.986 14.125C597.22 13.5 597.338 12.875 597.338 12.25C597.338 11.0156 597.166 10.0078 596.822 9.22656C596.478 8.44531 596.009 7.83594 595.416 7.39844C594.822 6.94531 594.134 6.64062 593.353 6.48438C592.572 6.32812 591.736 6.25 590.845 6.25H589.088V17.5H590.869ZM638.761 9.46094C638.12 9.17969 637.37 8.89844 636.511 8.61719C635.667 8.32031 634.777 8.05469 633.839 7.82031C632.917 7.58594 631.98 7.39844 631.027 7.25781C630.073 7.10156 629.175 7.02344 628.331 7.02344C626.862 7.02344 625.714 7.21094 624.886 7.58594C624.058 7.96094 623.644 8.59375 623.644 9.48438C623.644 9.90625 623.784 10.2812 624.066 10.6094C624.362 10.9219 624.777 11.2188 625.308 11.5C625.839 11.7656 626.472 12.0312 627.206 12.2969C627.956 12.5469 628.784 12.8125 629.691 13.0938L631.402 13.6328C632.839 14.0703 634.128 14.6016 635.269 15.2266C636.409 15.8359 637.37 16.5625 638.152 17.4062C638.948 18.2344 639.558 19.1875 639.98 20.2656C640.402 21.3438 640.612 22.5703 640.612 23.9453C640.612 25.5547 640.355 27.0234 639.839 28.3516C639.339 29.6641 638.55 30.7891 637.472 31.7266C636.394 32.6641 635.011 33.3906 633.323 33.9062C631.652 34.4219 629.636 34.6797 627.277 34.6797C625.183 34.6797 623.097 34.5078 621.019 34.1641C618.956 33.8203 616.87 33.2188 614.761 32.3594V24.625C616.777 25.6562 618.73 26.4141 620.62 26.8984C622.527 27.3672 624.402 27.6016 626.245 27.6016C627.761 27.6016 628.862 27.3594 629.55 26.875C630.253 26.3906 630.605 25.7188 630.605 24.8594C630.605 24.3438 630.472 23.9062 630.206 23.5469C629.956 23.1719 629.542 22.8281 628.964 22.5156C628.402 22.2031 627.659 21.8906 626.737 21.5781C625.816 21.25 624.698 20.8828 623.386 20.4766C622.073 20.0859 620.855 19.5938 619.73 19C618.62 18.4062 617.659 17.6953 616.847 16.8672C616.034 16.0234 615.394 15.0469 614.925 13.9375C614.472 12.8281 614.245 11.5625 614.245 10.1406C614.245 8.67188 614.503 7.32812 615.019 6.10938C615.534 4.89062 616.323 3.85156 617.386 2.99219C618.448 2.11719 619.792 1.4375 621.417 0.953125C623.058 0.46875 625.003 0.226562 627.253 0.226562C628.144 0.226562 629.089 0.265625 630.089 0.34375C631.089 0.421875 632.105 0.539062 633.136 0.695312C634.183 0.851562 635.214 1.05469 636.23 1.30469C637.245 1.55469 638.206 1.85156 639.112 2.19531L638.761 9.46094ZM650.208 0.859375H660.708V13.75H670.458V0.859375H680.958V34H670.458V20.5H660.708V34H650.208V0.859375ZM705.998 34.6797C703.952 34.6797 702.123 34.4531 700.514 34C698.905 33.5625 697.483 32.9531 696.248 32.1719C695.03 31.375 693.991 30.4375 693.131 29.3594C692.287 28.2656 691.592 27.0859 691.045 25.8203C690.514 24.5391 690.123 23.1953 689.873 21.7891C689.639 20.3828 689.522 18.9531 689.522 17.5C689.522 16.0625 689.67 14.6406 689.967 13.2344C690.264 11.8125 690.709 10.4609 691.303 9.17969C691.897 7.89844 692.647 6.71094 693.553 5.61719C694.459 4.52344 695.522 3.57812 696.741 2.78125C697.959 1.98438 699.334 1.35938 700.866 0.90625C702.412 0.453125 704.123 0.226562 705.998 0.226562C707.873 0.226562 709.577 0.453125 711.108 0.90625C712.655 1.35938 714.037 1.98438 715.256 2.78125C716.491 3.57812 717.561 4.52344 718.467 5.61719C719.373 6.71094 720.123 7.89844 720.717 9.17969C721.327 10.4609 721.78 11.8125 722.077 13.2344C722.373 14.6406 722.522 16.0625 722.522 17.5C722.522 18.9531 722.397 20.3828 722.147 21.7891C721.897 23.1953 721.498 24.5391 720.952 25.8203C720.42 27.0859 719.725 28.2656 718.866 29.3594C718.006 30.4375 716.967 31.375 715.748 32.1719C714.53 32.9531 713.108 33.5625 711.483 34C709.873 34.4531 708.045 34.6797 705.998 34.6797ZM700.022 17.5C700.022 19.375 700.155 20.9766 700.42 22.3047C700.702 23.6328 701.092 24.7188 701.592 25.5625C702.108 26.4062 702.733 27.0234 703.467 27.4141C704.217 27.8047 705.061 28 705.998 28C706.936 28 707.772 27.8047 708.506 27.4141C709.256 27.0234 709.889 26.4062 710.405 25.5625C710.936 24.7188 711.334 23.6328 711.6 22.3047C711.881 20.9766 712.022 19.375 712.022 17.5C712.022 15.625 711.881 14.0234 711.6 12.6953C711.334 11.3516 710.936 10.2578 710.405 9.41406C709.889 8.55469 709.256 7.92188 708.506 7.51562C707.772 7.10938 706.936 6.90625 705.998 6.90625C705.061 6.90625 704.217 7.10938 703.467 7.51562C702.733 7.92188 702.108 8.55469 701.592 9.41406C701.092 10.2578 700.702 11.3516 700.42 12.6953C700.155 14.0234 700.022 15.625 700.022 17.5ZM731.109 0.859375H743.906C746.125 0.859375 748.07 1 749.742 1.28125C751.43 1.54688 752.891 1.92969 754.125 2.42969C755.359 2.92969 756.383 3.53125 757.195 4.23438C758.023 4.9375 758.68 5.71094 759.164 6.55469C759.664 7.38281 760.016 8.27344 760.219 9.22656C760.422 10.1797 760.523 11.1641 760.523 12.1797C760.523 13.0391 760.422 13.8984 760.219 14.7578C760.031 15.6172 759.703 16.4375 759.234 17.2188C758.781 18 758.172 18.7266 757.406 19.3984C756.641 20.0703 755.695 20.6562 754.57 21.1562C753.461 21.6562 752.141 22.0469 750.609 22.3281C749.094 22.6094 747.344 22.75 745.359 22.75C745.078 22.75 744.727 22.75 744.305 22.75C743.883 22.7344 743.469 22.7109 743.062 22.6797L741.609 22.5859V34H731.109V0.859375ZM741.609 17.5H744.023C745.148 17.5 746.094 17.3672 746.859 17.1016C747.625 16.8203 748.242 16.4453 748.711 15.9766C749.18 15.5078 749.516 14.9531 749.719 14.3125C749.922 13.6719 750.023 12.9844 750.023 12.25C750.023 11.0781 749.875 10.1094 749.578 9.34375C749.281 8.57812 748.859 7.96875 748.312 7.51562C747.781 7.04688 747.148 6.71875 746.414 6.53125C745.68 6.34375 744.883 6.25 744.023 6.25H741.609V17.5Z" fill="white"/>
</svg>
